<?xml version="1.0" standalone="no"?>
<!DOCTYPE svg PUBLIC "-//W3C//DTD SVG 20010904//EN"
 "http://www.w3.org/TR/2001/REC-SVG-20010904/DTD/svg10.dtd">
<svg version="1.0" xmlns="http://www.w3.org/2000/svg"
 width="225.000000pt" height="225.000000pt" viewBox="0 0 225.000000 225.000000"
 preserveAspectRatio="xMidYMid meet">

<g transform="translate(0.000000,225.000000) scale(0.100000,-0.100000)"
fill="#000000" stroke="none">
<path d="M1023 2053 c-52 -18 -128 -90 -151 -141 -10 -23 -18 -78 -22 -147
l-5 -110 -127 -5 c-122 -5 -129 -6 -155 -32 l-26 -27 -74 -653 c-40 -359 -73
-661 -73 -672 0 -10 15 -33 34 -52 l34 -34 664 0 c641 0 664 1 695 20 19 11
35 31 39 47 7 25 -115 1185 -136 1302 -5 26 -18 54 -34 70 -25 25 -33 26 -154
31 l-127 5 -5 110 c-4 69 -12 124 -22 147 -24 54 -100 123 -155 142 -57 20
-144 19 -200 -1z m199 -74 c48 -25 94 -81 107 -135 6 -23 11 -77 11 -118 l0
-76 -215 0 -215 0 0 76 c0 97 15 153 52 198 67 81 166 102 260 55z m-372 -533
c0 -80 4 -137 10 -141 6 -3 19 -3 30 0 19 6 20 15 20 141 l0 134 215 0 215 0
0 -134 c0 -126 1 -135 20 -141 11 -3 24 -3 30 0 6 4 10 61 10 141 l0 134 114
0 c84 0 117 -4 125 -14 6 -7 43 -302 83 -656 69 -621 70 -643 53 -656 -15 -11
-135 -14 -648 -14 -414 0 -635 4 -648 10 -14 8 -19 21 -19 48 1 60 136 1258
144 1271 5 7 48 11 127 11 l119 0 0 -134z"/>
</g>
</svg>
